<svg id="Capa_1" enable-background="new 0 0 512 512" height="512" viewBox="0 0 512 512" width="512" xmlns="http://www.w3.org/2000/svg" xmlns:xlink="http://www.w3.org/1999/xlink"><linearGradient id="SVGID_1_" gradientUnits="userSpaceOnUse" x1="256" x2="256" y1="512" y2="0"><stop offset="0" stop-color="#ffbef9"/><stop offset="1" stop-color="#fff1ff"/></linearGradient><linearGradient id="SVGID_2_" gradientUnits="userSpaceOnUse" x1="256" x2="256" y1="105" y2="407.001"><stop offset="0" stop-color="#a93aff"/><stop offset="1" stop-color="#ff81ff"/></linearGradient><g><g><circle cx="256" cy="256" fill="url(#SVGID_1_)" r="256"/></g><g><g><path d="m300.412 202.706v-35.529c0-34.281-27.896-62.177-62.176-62.177h-71.059c-34.281 0-62.177 27.896-62.177 62.177v53.294c0 21.451 15.284 39.39 35.529 43.519v27.541c0 3.591 2.16 6.835 5.482 8.206 3.273 1.366 7.116.639 9.68-1.926l32.927-32.927h49.616c34.282-.001 62.178-27.898 62.178-62.178zm-133.235-8.88c-4.905 0-8.882-3.977-8.882-8.882 0-4.906 3.977-8.882 8.882-8.882s8.882 3.976 8.882 8.882c0 4.905-3.977 8.882-8.882 8.882zm35.529 0c-4.905 0-8.882-3.977-8.882-8.882 0-4.906 3.977-8.882 8.882-8.882s8.882 3.976 8.882 8.882c0 4.905-3.977 8.882-8.882 8.882zm35.529 0c-4.905 0-8.882-3.977-8.882-8.882 0-4.906 3.977-8.882 8.882-8.882s8.882 3.976 8.882 8.882c.001 4.905-3.976 8.882-8.882 8.882zm159.883 17.762h-80.839c-4.152 36.907-33.255 66.009-70.161 70.161v89.722c0 4.91 3.973 8.882 8.882 8.882h76.263l24.045 24.045c2.561 2.56 6.404 3.293 9.68 1.925 3.322-1.371 5.482-4.615 5.482-8.206v-17.765h26.647c4.91 0 8.882-3.973 8.882-8.882v-151c.001-4.909-3.972-8.882-8.881-8.882zm-71.059 133.238c-4.905 0-8.882-3.977-8.882-8.882 0-4.907 3.977-8.882 8.882-8.882s8.882 3.976 8.882 8.882c0 4.905-3.977 8.882-8.882 8.882zm9.871-46.296-.989 1.882c0 4.91-3.973 8.882-8.882 8.882-4.91 0-8.882-3.973-8.882-8.882 0-8.405 4.779-15.449 12.178-18.389 3.383-1.354 5.586-4.598 5.586-8.258 0-4.901-3.981-8.882-8.882-8.882s-8.882 3.981-8.882 8.882c0 4.91-3.973 8.882-8.882 8.882-4.91 0-8.882-3.973-8.882-8.882 0-14.694 11.953-26.647 26.647-26.647s26.647 11.953 26.647 26.647c-.001 10.973-6.585 20.696-16.777 24.765z" fill="url(#SVGID_2_)"/></g></g></g></svg>