<?xml version="1.0" encoding="iso-8859-1"?>
<!-- Generator: Adobe Illustrator 19.0.0, SVG Export Plug-In . SVG Version: 6.00 Build 0)  -->
<svg version="1.1" id="Capa_1" xmlns="http://www.w3.org/2000/svg" xmlns:xlink="http://www.w3.org/1999/xlink" x="0px" y="0px"
	 viewBox="0 0 512 512" style="enable-background:new 0 0 512 512;" xml:space="preserve">
<g>
	<g>
		<path d="M509.803,109.896l-45.57-45.57c-2.929-2.928-7.678-2.928-10.606,0c-2.929,2.93-2.929,7.678,0,10.607l40.267,40.267
			l-76.066,76.076l-97.094-97.094L396.8,18.106l35.937,35.938c2.929,2.928,7.678,2.928,10.606,0c2.929-2.93,2.929-7.678,0-10.607
			l-41.24-41.24C400.696,0.79,398.788,0,396.799,0s-3.897,0.79-5.304,2.197l-81.369,81.378L288.251,61.7
			c-2.929-2.928-7.678-2.928-10.606,0L163.619,175.726c-2.929,2.93-2.929,7.678,0,10.607c2.929,2.928,7.678,2.928,10.606,0
			L282.948,77.61L434.39,229.053l-34.722,34.722c-2.929,2.93-2.929,7.678,0,10.607c1.464,1.464,3.384,2.196,5.303,2.196
			s3.839-0.732,5.303-2.196l40.025-40.025c2.929-2.93,2.929-7.678,0-10.607l-21.867-21.867l81.37-81.379
			C512.732,117.574,512.731,112.826,509.803,109.896z"/>
	</g>
</g>
<g>
	<g>
		<path d="M411.966,71.693l-14.199-14.196c-2.929-2.928-7.678-2.928-10.606,0l-14.197,14.197c-2.929,2.93-2.929,7.678,0,10.606
			l14.197,14.198c1.407,1.407,3.314,2.197,5.304,2.197s3.897-0.79,5.303-2.197L411.966,82.3c1.407-1.406,2.197-3.313,2.197-5.303
			S413.373,73.101,411.966,71.693z M392.463,80.59l-3.591-3.592l3.591-3.591l3.591,3.591L392.463,80.59z"/>
	</g>
</g>
<g>
	<g>
		<path d="M454.502,114.235l-14.197-14.198c-1.407-1.407-3.314-2.197-5.304-2.197s-3.897,0.79-5.303,2.197L415.5,114.235
			c-1.407,1.406-2.197,3.313-2.197,5.303c0,1.99,0.79,3.896,2.197,5.304l14.199,14.196c1.464,1.464,3.384,2.196,5.303,2.196
			s3.839-0.732,5.303-2.196l14.197-14.197C457.431,121.911,457.431,117.163,454.502,114.235z M435.002,123.128l-3.591-3.591
			l3.591-3.592l3.591,3.592L435.002,123.128z"/>
	</g>
</g>
<g>
	<g>
		<path d="M389.382,284.668c-2.929-2.928-7.678-2.928-10.607,0L197.808,465.635C177.582,485.861,150.69,497,122.087,497
			c-28.604,0-55.496-11.139-75.722-31.365C26.14,445.409,15,418.518,15,389.914s11.139-55.495,31.365-75.721l106.967-106.967
			c2.929-2.93,2.929-7.678,0-10.607c-2.929-2.928-7.678-2.928-10.606,0L35.759,303.586C12.7,326.646,0,357.304,0,389.914
			c0,32.61,12.7,63.269,35.759,86.328C58.818,499.301,89.477,512,122.087,512c32.61,0,63.269-12.699,86.328-35.758l180.967-180.967
			C392.311,292.345,392.311,287.597,389.382,284.668z"/>
	</g>
</g>
<g>
	<g>
		<path d="M300.801,282.29c-8.967-8.967-23.561-8.967-32.529,0c-7.089,7.09-8.551,17.685-4.432,26.247
			c-8.671,7.579-21.891,7.26-30.158-1l-12.486-12.486l34.686-34.686c3.166,1.537,6.606,2.328,10.055,2.328
			c5.891,0,11.781-2.242,16.265-6.726c8.968-8.969,8.968-23.562,0-32.53c-8.967-8.967-23.561-8.967-32.529,0
			c-7.11,7.11-8.56,17.746-4.398,26.321l-39.984,39.984c-0.002,0.002-0.003,0.003-0.005,0.005c-0.002,0.002-0.003,0.003-0.005,0.005
			l-24.592,24.592l-10.797-10.798c-4.952-4.952-4.952-13.01,0-17.962l19.197-19.198c3.166,1.537,6.606,2.328,10.054,2.328
			c5.891,0,11.781-2.242,16.265-6.726c8.968-8.969,8.968-23.561,0-32.529c-8.968-8.967-23.561-8.967-32.529,0
			c-7.11,7.11-8.56,17.746-4.397,26.321l-19.196,19.197c-10.801,10.8-10.801,28.376,0,39.176l10.796,10.797l-18.062,18.062
			c-10.249-5.641-23.414-4.13-32.093,4.548c-5.095,5.095-7.901,11.869-7.901,19.075c0,7.206,2.806,13.98,7.901,19.074
			c5.095,5.096,11.87,7.902,19.076,7.902s13.98-2.807,19.075-7.901c0,0,0,0,0.001-0.001c5.095-5.095,7.901-11.869,7.901-19.074
			c0-4.631-1.164-9.08-3.345-13.024l47.954-47.954l12.489,12.489c7.238,7.231,16.741,10.846,26.243,10.846
			c9.026,0,18.047-3.27,25.122-9.793c3.177,1.549,6.631,2.346,10.093,2.346c5.891,0,11.781-2.242,16.265-6.726
			C309.769,305.85,309.769,291.258,300.801,282.29z M260.279,234.044c1.56-1.561,3.609-2.34,5.658-2.34s4.098,0.779,5.658,2.34
			c3.12,3.119,3.12,8.196,0,11.315c-3.109,3.111-8.16,3.119-11.283,0.03c-0.01-0.01-0.019-0.022-0.03-0.033
			c-0.011-0.011-0.022-0.019-0.033-0.03C257.162,242.205,257.17,237.153,260.279,234.044z M193.486,240.066
			c1.56-1.561,3.609-2.34,5.658-2.34s4.098,0.779,5.658,2.34c3.12,3.119,3.12,8.195,0,11.314c-3.101,3.103-8.132,3.119-11.257,0.053
			c-0.018-0.019-0.034-0.04-0.052-0.058c-0.019-0.019-0.04-0.034-0.059-0.053C190.37,248.199,190.385,243.167,193.486,240.066z
			 M147.473,375.103c-2.263,2.263-5.27,3.509-8.469,3.509s-6.207-1.246-8.469-3.509c-2.262-2.262-3.508-5.269-3.508-8.468
			s1.246-6.207,3.508-8.469c2.335-2.335,5.401-3.502,8.469-3.502c3.067,0,6.134,1.167,8.469,3.502
			c2.262,2.262,3.508,5.27,3.508,8.469C150.981,369.834,149.735,372.841,147.473,375.103z M290.195,304.21
			c-3.109,3.111-8.159,3.119-11.282,0.03c-0.021-0.021-0.042-0.042-0.063-0.063c-3.089-3.12-3.08-8.172,0.029-11.281
			c1.56-1.561,3.609-2.34,5.658-2.34c2.049,0,4.098,0.779,5.658,2.34C293.315,296.015,293.315,301.091,290.195,304.21z"/>
	</g>
</g>
<g>
</g>
<g>
</g>
<g>
</g>
<g>
</g>
<g>
</g>
<g>
</g>
<g>
</g>
<g>
</g>
<g>
</g>
<g>
</g>
<g>
</g>
<g>
</g>
<g>
</g>
<g>
</g>
<g>
</g>
</svg>
